# xmcd
#
# Track frame offsets: 
#        150
#        18278
#        29825
#        44198
#        56620
#        75593
#        89790
#        102425
#        116143
#        130518
#        141368
#        153963
#        164638
#        177288
#
# Disc length: 2525 seconds
#
# Revision: 1
# Processed by: cddbd v1.5.2PL0 Copyright (c) Steve Scherf et al.
# Submitted via: ExactAudioCopy v0.99pb4
#
DISCID=c809db0e
DTITLE=Various Artist - Confessing the Blues featuring Memphis Slim
DYEAR=1997
DGENRE=Blues
TTITLE0=Diney brown blues ("Big" Joe Turner)
TTITLE1=Person to person (Eddie "Clean Head" Vinson) 
TTITLE2=The welfare blues (Nyles Jones)
TTITLE3=Fanny Mae (Johnny Otis)
TTITLE4=Best friend blues (Big Daddy Rucker)
TTITLE5=DePrit and Betty (Nyles Jones)
TTITLE6=Baby I got news for you (Johnny Otis)
TTITLE7=You're still my baby ("Big" Joe Turner)
TTITLE8=Cherry red (Johnny Otis)
TTITLE9=Your poodle dog (Nyles Jones)
TTITLE10=Clean head blues (Eddie "Clean Head" Vinson) 
TTITLE11=You got me movin' (Big Daddy Rucker)
TTITLE12=Ain't gonna let no woman (Nyles Jones) 
TTITLE13=Linda lu (Johnny Otis) 
EXTD=
EXTT0=Big Joe Turner
EXTT1=Eddie Vinson
EXTT2=nyles Jones
EXTT3=johnny otis
EXTT4=big daddy rucker
EXTT5=nyles jones
EXTT6=jonny otis
EXTT7=big joe turner
EXTT8=jonny otis
EXTT9=nyles jones
EXTT10=eddie vinson
EXTT11=big daddy rucker
EXTT12=nyles jones
EXTT13=johnny otis
PLAYORDER=
